<?xml version="1.0" encoding="UTF-8"?><svg id="Layer_1" xmlns="http://www.w3.org/2000/svg" viewBox="0 0 500 550"><path d="M318.79,170.21c8.09-9.15,7.23-23.25-1.92-31.34-9.15-8.09-23.25-7.23-31.34,1.92l-104.32,117.91c-8.09,9.15-7.23,23.25,1.92,31.34,9.15,8.09,23.25,7.23,31.34-1.92l104.32-117.91Z"/><path d="M386.79,249.82c-.04,.15-.06,.31-.09,.46-15.86,60.68-71.04,105.45-136.69,105.45s-120.83-44.77-136.69-105.45c-.04-.15-.06-.31-.09-.46-2.79-10.79-13.8-17.28-24.6-14.49-10.79,2.79-17.28,13.8-14.49,24.6h-.04c20.19,78.32,91.29,136.17,175.91,136.17s155.72-57.85,175.91-136.16h-.04c2.79-10.8-3.7-21.81-14.49-24.6-10.79-2.79-21.8,3.7-24.6,14.49"/><path d="M74.09,168.96h.04c-2.79,10.8,3.7,21.81,14.49,24.6,10.79,2.79,21.8-3.7,24.59-14.49,.04-.15,.06-.31,.1-.46,15.86-60.67,71.04-105.45,136.69-105.45s120.83,44.78,136.69,105.45c.04,.15,.06,.31,.1,.46,2.79,10.79,13.8,17.28,24.59,14.49,10.79-2.79,17.28-13.8,14.49-24.59h.04c-20.19-78.32-91.29-136.17-175.91-136.17S94.28,90.65,74.09,168.96"/><polygon points="43.32 503.02 72.15 470.4 72.15 458.22 28.35 458.22 28.35 470.17 54.49 470.17 54.49 470.51 25 503.91 25 515.53 73.6 515.53 73.6 503.35 43.32 503.35 43.32 503.02"/><path d="M91.82,480.67c1.34-7.48,5.25-12.29,13.29-12.29,6.93,0,11.73,5.03,12.18,12.29h-25.47Zm13.07-24.02c-16.76,0-28.26,13.18-28.26,30.16s10.72,30.39,29.72,30.39c14.75,0,23.8-8.6,25.92-18.77h-14.97c-1.68,4.36-5.14,7.04-11.06,7.04-8.6,0-13.52-5.47-14.64-14.3h41.56c0-20.44-9.83-34.52-28.26-34.52"/><path d="M172.88,456.65c-7.82,0-13.07,3.24-16.98,9.38h-.34v-7.82h-14.86v57.31h15.2v-32.51c0-7.82,4.92-13.18,11.62-13.18s9.94,4.36,9.94,10.5v35.19h15.19v-37.42c0-12.51-7.93-21.45-19.77-21.45"/><path d="M229.94,480.67c-8.16-1.68-15.75-2.12-15.75-7.04,0-4.13,3.91-6.37,9.83-6.37,6.48,0,10.39,2.23,11.06,8.38h13.74c-1.12-11.51-9.5-18.99-24.58-18.99-13.07,0-23.35,5.92-23.35,18.32s10.06,15.3,20.33,17.32c7.82,1.56,15.08,2.12,15.08,7.6,0,4.02-3.8,6.59-10.5,6.59s-11.51-2.9-12.51-9.5h-14.08c.89,12.18,10.17,20.22,26.81,20.22,14.3,0,24.13-6.93,24.13-18.43,0-13.41-10.61-16.09-20.22-18.1"/><path d="M269.59,480.67c1.34-7.48,5.25-12.29,13.29-12.29,6.93,0,11.73,5.03,12.18,12.29h-25.47Zm13.07-24.02c-16.76,0-28.26,13.18-28.26,30.16s10.72,30.39,29.72,30.39c14.75,0,23.8-8.6,25.92-18.77h-14.97c-1.68,4.36-5.14,7.04-11.06,7.04-8.6,0-13.52-5.47-14.64-14.3h41.56c0-20.44-9.83-34.52-28.26-34.52"/><path d="M352.47,495.31c0,5.59-4.8,10.95-13.52,10.95-5.36,0-8.94-1.9-8.94-7.26s3.91-7.15,11.84-8.94c3.8-.89,7.93-1.79,10.61-3.35v8.6Zm14.3,11.73v-29.16c0-13.41-6.93-21.11-24.13-21.11s-24.24,8.83-24.69,18.88h13.52c.45-5.47,3.91-8.04,11.06-8.04,6.37,0,9.61,2.68,9.61,6.81,0,4.36-4.36,5.14-13.85,6.48-12.74,1.79-23.01,5.81-23.01,18.43,0,11.4,8.27,17.54,20,17.54,9.83,0,13.96-3.35,16.87-7.71h.22c.34,2.57,.89,5.25,1.79,6.37h14.64v-.56c-1.34-1-2.01-3.58-2.01-7.93"/><path d="M402.73,505.03c-9.27,0-13.63-7.26-13.63-18.1s4.69-18.1,13.85-18.1c5.59,0,9.5,3.8,10.5,8.83h14.86c-2.01-12.4-11.17-21-26.03-21-17.43,0-28.6,13.18-28.6,30.28s11.28,30.28,29.38,30.28c15.3,0,24.8-9.72,25.81-21.9h-14.64c-1.01,6.48-5.36,9.72-11.51,9.72"/><path d="M475,470.24v-12.02h-43.79v12.02h12.41v31.66c0,10.84,8.16,13.74,15.53,13.74,6.03,0,9.5-.22,9.5-.22v-11.17s-2.57,.11-4.47,.11c-3.35,0-5.7-1.45-5.7-5.7v-28.42h16.52Z"/></svg>
